# xmcd
#
# Track frame offsets:
#	150
#	20086
#	32211
#	47108
#	81825
#	108184
#	145542
#
# Disc length: 2609 seconds
#
# Revision: 0
# Processed by: cddbd v1.5.2PL0 Copyright (c) Steve Scherf et al.
# Submitted via: audiograbber 1.83.01
#
DISCID=540a2f07
DTITLE=Youri Blow - Moon Rock My Soul
DYEAR=2012
DGENRE=Blues
TTITLE0=I'm Waiting
TTITLE1=Dark Was The Night
TTITLE2=Moon Rock My Soul
TTITLE3=Fleurs du Perou
TTITLE4=Lovely Lucie
TTITLE5=Arbre de Vie
TTITLE6=Esprit Libre, Univers Libre
EXTD=
EXTT0=
EXTT1=
EXTT2=
EXTT3=
EXTT4=
EXTT5=
EXTT6=
PLAYORDER=
